<svg xmlns="http://www.w3.org/2000/svg" xmlns:xlink="http://www.w3.org/1999/xlink" width="500" zoomAndPan="magnify" viewBox="0 0 375 374.999991" height="500" preserveAspectRatio="xMidYMid meet" version="1.0"><defs><g/><clipPath id="2f69a5595b"><path d="M 95 133 L 280 133 L 280 142 L 95 142 Z M 95 133 " clip-rule="nonzero"/></clipPath><clipPath id="cc3ecf4be2"><path d="M 103.734375 135.753906 L 165.894531 140.59375 C 165.789062 140.292969 165.695312 139.671875 166.269531 138.886719 L 104.300781 134.164062 C 104.0625 134.5 103.683594 135.144531 103.734375 135.753906 M 98.09375 135.316406 C 98.09375 134.914062 98.175781 134.238281 98.652344 133.734375 L 95.5 133.492188 C 95.5 133.492188 95.882812 134.53125 96.855469 135.21875 Z M 271.238281 135.753906 L 209.078125 140.59375 C 209.183594 140.292969 209.277344 139.671875 208.703125 138.886719 L 270.671875 134.164062 C 270.910156 134.5 271.289062 135.144531 271.238281 135.753906 Z M 276.878906 135.316406 C 276.878906 134.914062 276.796875 134.238281 276.320312 133.734375 L 279.46875 133.492188 C 279.46875 133.492188 279.089844 134.53125 278.113281 135.21875 Z M 203.285156 139.296875 C 203.507812 139.628906 203.882812 140.320312 203.6875 141.011719 L 196.253906 141.59375 L 196.820312 139.792969 Z M 171.683594 139.296875 C 171.464844 139.628906 171.089844 140.320312 171.285156 141.011719 L 178.71875 141.59375 L 178.152344 139.792969 Z M 171.683594 139.296875 " clip-rule="evenodd"/></clipPath><radialGradient gradientTransform="matrix(0.999864, 0, 0, 1.000136, 58.302005, 116.004117)" gradientUnits="userSpaceOnUse" r="65.115485" cx="129.20154" id="d8cc214947" cy="21.535724" fx="129.20154" fy="21.535724"><stop stop-opacity="1" stop-color="rgb(7.499695%, 4.699707%, 5.499268%)" offset="0"/><stop stop-opacity="1" stop-color="rgb(7.499695%, 4.699707%, 5.499268%)" offset="1"/></radialGradient><clipPath id="5ce5109ca2"><path d="M 94 116.003906 L 281 116.003906 L 281 158 L 94 158 Z M 94 116.003906 " clip-rule="nonzero"/></clipPath><clipPath id="832b205a0e"><path d="M 204.9375 148.859375 C 205.5625 149.191406 205.992188 149.851562 205.992188 150.605469 L 205.992188 155.414062 C 205.992188 156.167969 205.5625 156.828125 204.9375 157.160156 Z M 189.429688 121.464844 C 189.429688 121.464844 190.625 121.453125 190.773438 121.734375 C 190.921875 122.019531 193.089844 127.285156 193.089844 127.285156 C 193.089844 127.285156 191.636719 125.929688 190.316406 125.261719 Z M 277.5625 134.542969 C 277.5625 134.140625 277.476562 133.464844 277.003906 132.960938 L 280.152344 132.71875 C 280.152344 132.71875 279.773438 133.757812 278.796875 134.445312 Z M 209.761719 139.824219 C 209.867188 139.523438 209.960938 138.90625 209.386719 138.117188 L 271.351562 133.390625 C 271.59375 133.730469 271.972656 134.371094 271.917969 134.980469 Z M 203.96875 138.527344 C 204.191406 138.859375 204.566406 139.550781 204.371094 140.242188 L 196.9375 140.824219 L 197.503906 139.023438 Z M 196.464844 135.882812 C 197.546875 135.359375 199.902344 134.230469 201.410156 133.519531 L 196.199219 133.523438 C 196.199219 133.523438 196.335938 134.566406 196.464844 135.882812 Z M 189.148438 148.726562 C 191.160156 148.589844 194.875 148.335938 199.742188 147.980469 L 197.671875 144.015625 C 197.378906 143.449219 196.609375 143.195312 196.132812 143.089844 C 195.953125 143.390625 195.195312 144.484375 193.628906 144.484375 L 192.179688 146.492188 L 188.457031 146.492188 L 188.457031 147.722656 C 188.796875 147.957031 189.046875 148.3125 189.148438 148.726562 Z M 234.183594 139.902344 L 233.945312 145.222656 C 239.058594 144.765625 244.25 144.273438 249.3125 143.761719 L 249.910156 138.613281 Z M 213.628906 146.929688 L 213.835938 141.570312 L 196.964844 142.949219 C 197.382812 143.132812 197.796875 143.410156 198.019531 143.832031 L 200.167969 147.949219 C 204.042969 147.667969 208.621094 147.324219 213.628906 146.929688 Z M 214.429688 141.519531 L 214.21875 146.882812 C 220.164062 146.414062 226.6875 145.871094 233.351562 145.277344 L 233.589844 139.949219 Z M 170.035156 148.859375 C 169.410156 149.191406 168.980469 149.851562 168.980469 150.605469 L 168.980469 155.414062 C 168.980469 156.171875 169.410156 156.828125 170.039062 157.160156 L 170.039062 148.859375 Z M 171.867188 157.160156 C 172.496094 156.828125 172.925781 156.167969 172.925781 155.414062 L 172.925781 150.605469 C 172.925781 149.851562 172.496094 149.191406 171.867188 148.863281 Z M 185.539062 121.464844 C 185.539062 121.464844 184.34375 121.453125 184.195312 121.734375 C 184.050781 122.019531 181.878906 127.285156 181.878906 127.285156 C 181.878906 127.285156 183.332031 125.929688 184.652344 125.261719 Z M 97.410156 134.546875 C 97.410156 134.144531 97.496094 133.46875 97.96875 132.964844 L 94.820312 132.726562 C 94.820312 132.726562 95.199219 133.761719 96.175781 134.453125 Z M 165.210938 139.824219 C 165.105469 139.527344 165.011719 138.90625 165.585938 138.117188 L 103.621094 133.394531 C 103.378906 133.734375 103 134.375 103.050781 134.988281 Z M 171.003906 138.53125 C 170.78125 138.859375 170.40625 139.554688 170.601562 140.246094 L 178.035156 140.824219 L 177.46875 139.023438 Z M 178.507812 135.882812 C 177.425781 135.359375 175.070312 134.230469 173.558594 133.519531 L 178.773438 133.523438 C 178.773438 133.523438 178.636719 134.566406 178.507812 135.882812 Z M 185.824219 148.726562 C 183.8125 148.589844 180.097656 148.335938 175.230469 147.980469 L 177.300781 144.015625 C 177.59375 143.449219 178.363281 143.195312 178.839844 143.089844 C 179.019531 143.394531 179.777344 144.484375 181.34375 144.484375 L 182.792969 146.492188 L 186.515625 146.492188 L 186.515625 147.722656 C 186.175781 147.957031 185.925781 148.3125 185.824219 148.726562 Z M 187.484375 125.113281 L 185.613281 125.113281 L 186.378906 121.441406 L 187.484375 121.402344 L 188.59375 121.441406 L 189.359375 125.113281 Z M 187.488281 138.449219 C 185.566406 138.449219 184.011719 136.890625 184.011719 134.972656 C 184.011719 133.050781 185.566406 131.496094 187.484375 131.496094 C 189.40625 131.496094 190.960938 133.050781 190.960938 134.972656 C 190.960938 136.890625 189.40625 138.449219 187.488281 138.449219 Z M 140.789062 139.90625 L 141.027344 145.226562 C 135.914062 144.769531 130.722656 144.277344 125.660156 143.765625 L 125.0625 138.617188 Z M 161.34375 146.929688 L 161.136719 141.570312 L 178.007812 142.949219 C 177.589844 143.132812 177.175781 143.410156 176.953125 143.835938 L 174.804688 147.953125 C 170.929688 147.667969 166.351562 147.324219 161.34375 146.929688 Z M 160.546875 141.523438 L 160.753906 146.882812 C 154.808594 146.414062 148.285156 145.875 141.621094 145.277344 L 141.382812 139.953125 Z M 170.953125 148.632812 C 170.773438 148.632812 170.597656 148.660156 170.429688 148.703125 L 170.429688 157.316406 C 170.597656 157.363281 170.773438 157.386719 170.953125 157.386719 C 171.132812 157.386719 171.304688 157.363281 171.472656 157.316406 L 171.472656 148.703125 C 171.304688 148.660156 171.132812 148.632812 170.953125 148.632812 Z M 201.945312 151.914062 L 202.03125 151.914062 C 202.035156 151.914062 202.042969 151.914062 202.050781 151.914062 L 202.050781 150.605469 C 202.050781 149.851562 202.480469 149.191406 203.105469 148.859375 L 203.105469 157.160156 C 202.480469 156.828125 202.050781 156.167969 202.050781 155.414062 L 202.050781 154.105469 C 202.042969 154.105469 202.035156 154.105469 202.03125 154.105469 L 201.660156 154.105469 C 201.542969 154.105469 201.445312 154.011719 201.445312 153.890625 L 201.445312 152.128906 C 201.445312 152.050781 201.488281 151.980469 201.550781 151.941406 C 201.550781 151.722656 201.546875 151.5 201.539062 151.429688 L 200.039062 148.550781 C 195.046875 148.917969 191.234375 149.175781 189.1875 149.316406 C 189.097656 150.175781 188.371094 150.84375 187.488281 150.84375 C 186.605469 150.84375 185.878906 150.175781 185.785156 149.316406 C 183.738281 149.175781 179.929688 148.917969 174.933594 148.554688 L 173.433594 151.429688 C 173.417969 151.582031 173.421875 152.433594 173.421875 152.4375 L 173.027344 152.4375 C 173.027344 152.433594 173.023438 151.457031 173.050781 151.324219 L 173.070312 151.277344 L 174.507812 148.519531 C 162.199219 147.625 143.011719 146.121094 125.382812 144.328125 C 125.371094 144.328125 125.359375 144.328125 125.347656 144.324219 C 124.621094 144.25 123.894531 144.175781 123.171875 144.101562 C 123.011719 144.085938 122.890625 143.941406 122.910156 143.777344 C 122.925781 143.617188 123.070312 143.496094 123.230469 143.515625 C 123.839844 143.578125 124.449219 143.640625 125.058594 143.703125 L 124.460938 138.566406 L 96.269531 136.261719 L 96.074219 135.324219 C 94.078125 133.96875 94.125 132.21875 94.125 132.21875 L 177.9375 138.578125 L 178.304688 139.835938 C 178.273438 138.886719 178.355469 137.582031 178.460938 136.402344 C 177.203125 135.800781 173.496094 134.015625 172.457031 133.519531 L 159.3125 133.511719 C 159.054688 133.511719 158.792969 133.265625 158.792969 132.867188 C 158.792969 132.472656 159.300781 132.390625 159.300781 132.390625 L 179.140625 132.238281 C 179.140625 132.238281 183.664062 121.589844 184.171875 120.875 C 184.675781 120.15625 186.585938 120.082031 186.585938 120.082031 L 187.03125 116.125 L 187.484375 116.003906 L 187.941406 116.125 L 188.386719 120.085938 C 188.386719 120.085938 190.296875 120.160156 190.800781 120.875 C 191.304688 121.589844 195.828125 132.242188 195.828125 132.242188 L 215.671875 132.386719 C 215.671875 132.386719 216.175781 132.472656 216.175781 132.867188 C 216.175781 133.261719 215.917969 133.511719 215.660156 133.511719 L 202.515625 133.519531 C 201.476562 134.015625 197.765625 135.800781 196.511719 136.402344 C 196.617188 137.582031 196.699219 138.886719 196.667969 139.835938 L 197.035156 138.578125 L 280.847656 132.214844 C 280.847656 132.214844 280.894531 133.964844 278.898438 135.320312 L 278.699219 136.257812 L 250.511719 138.566406 L 249.914062 143.699219 C 250.523438 143.636719 251.132812 143.574219 251.742188 143.511719 C 251.902344 143.496094 252.046875 143.613281 252.0625 143.773438 C 252.082031 143.9375 251.960938 144.082031 251.800781 144.097656 C 251.078125 144.171875 250.355469 144.25 249.625 144.324219 C 249.613281 144.324219 249.601562 144.324219 249.589844 144.324219 C 231.960938 146.121094 212.773438 147.621094 200.464844 148.519531 L 201.902344 151.277344 L 201.921875 151.324219 C 201.9375 151.386719 201.941406 151.65625 201.945312 151.914062 Z M 187.484375 132.011719 C 188.332031 132.011719 189.097656 132.371094 189.636719 132.941406 C 189.160156 132.5625 188.558594 132.332031 187.902344 132.332031 C 186.367188 132.332031 185.121094 133.582031 185.121094 135.117188 C 185.121094 136.65625 186.367188 137.902344 187.902344 137.902344 L 187.914062 137.902344 C 187.773438 137.921875 187.632812 137.933594 187.488281 137.933594 C 185.851562 137.933594 184.527344 136.605469 184.527344 134.972656 C 184.527344 133.339844 185.851562 132.011719 187.484375 132.011719 Z M 188.613281 132.679688 C 189.71875 132.953125 190.542969 133.953125 190.542969 135.140625 C 190.542969 136.542969 189.40625 137.675781 188.007812 137.675781 C 186.816406 137.675781 185.816406 136.855469 185.546875 135.75 C 185.917969 136.515625 186.703125 137.042969 187.613281 137.042969 C 188.882812 137.042969 189.910156 136.015625 189.910156 134.746094 C 189.910156 133.839844 189.378906 133.050781 188.613281 132.679688 Z M 187.488281 133.558594 C 188.265625 133.558594 188.898438 134.191406 188.898438 134.972656 C 188.898438 135.75 188.808594 134.558594 188.027344 134.558594 C 187.25 134.558594 186.074219 135.75 186.074219 134.972656 C 186.074219 134.191406 186.707031 133.558594 187.488281 133.558594 Z M 204.019531 148.632812 C 204.199219 148.632812 204.375 148.65625 204.542969 148.703125 L 204.542969 157.316406 C 204.375 157.359375 204.203125 157.386719 204.019531 157.386719 C 203.839844 157.386719 203.667969 157.363281 203.5 157.316406 L 203.5 148.703125 C 203.667969 148.65625 203.839844 148.632812 204.019531 148.632812 Z M 204.019531 148.632812 " clip-rule="evenodd"/></clipPath><radialGradient gradientTransform="matrix(0.999864, 0, 0, 1.000136, 58.302005, 116.004117)" gradientUnits="userSpaceOnUse" r="67.625805" cx="129.202047" id="5cc38b50e8" cy="20.688192" fx="129.202047" fy="20.688192"><stop stop-opacity="1" stop-color="rgb(7.499695%, 4.699707%, 5.499268%)" offset="0"/><stop stop-opacity="1" stop-color="rgb(7.499695%, 4.699707%, 5.499268%)" offset="1"/></radialGradient><clipPath id="3115fe1ed7"><path d="M 207 144 L 252 144 L 252 155 L 207 155 Z M 207 144 " clip-rule="nonzero"/></clipPath><clipPath id="0bb1be72d0"><path d="M 235.082031 146.316406 L 213.347656 154.300781 L 231.523438 146.742188 Z M 251.324219 144.746094 L 220.527344 153.847656 L 246.285156 145.402344 Z M 214.445312 147.957031 L 207.726562 154.226562 L 213.378906 148.082031 Z M 214.445312 147.957031 " clip-rule="evenodd"/></clipPath><radialGradient gradientTransform="matrix(0.999864, 0, 0, 1.000136, 58.302005, 116.004117)" gradientUnits="userSpaceOnUse" r="15.78183" cx="171.245076" id="8d9f126a8f" cy="33.515956" fx="171.245076" fy="33.515956"><stop stop-opacity="1" stop-color="rgb(7.499695%, 4.699707%, 5.499268%)" offset="0"/><stop stop-opacity="1" stop-color="rgb(7.499695%, 4.699707%, 5.499268%)" offset="1"/></radialGradient><clipPath id="24f0db6060"><path d="M 123 144 L 168 144 L 168 155 L 123 155 Z M 123 144 " clip-rule="nonzero"/></clipPath><clipPath id="e3a9c0544d"><path d="M 139.890625 146.320312 L 161.625 154.304688 L 143.449219 146.746094 Z M 123.648438 144.75 L 154.445312 153.851562 L 128.6875 145.40625 Z M 160.527344 147.957031 L 167.25 154.226562 L 161.59375 148.082031 Z M 160.527344 147.957031 " clip-rule="evenodd"/></clipPath><radialGradient gradientTransform="matrix(0.999864, 0, 0, 1.000136, 58.302005, 116.004117)" gradientUnits="userSpaceOnUse" r="15.78183" cx="87.159013" id="5374001790" cy="33.51852" fx="87.159013" fy="33.51852"><stop stop-opacity="1" stop-color="rgb(7.499695%, 4.699707%, 5.499268%)" offset="0"/><stop stop-opacity="1" stop-color="rgb(7.499695%, 4.699707%, 5.499268%)" offset="1"/></radialGradient><clipPath id="560469ea16"><path d="M 186 135 L 192 135 L 192 160 L 186 160 Z M 186 135 " clip-rule="nonzero"/></clipPath><clipPath id="3d75162278"><path d="M 187.132812 141.613281 C 187.097656 142.398438 187.082031 143.1875 187.117188 143.96875 C 187.144531 144.519531 187.199219 145.191406 187.378906 145.714844 C 187.496094 146.066406 187.59375 146.433594 187.679688 146.796875 C 187.789062 147.261719 187.882812 147.730469 187.972656 148.203125 C 188.183594 149.316406 188.359375 150.445312 188.507812 151.570312 C 188.667969 152.757812 188.800781 153.957031 188.890625 155.152344 C 188.925781 155.640625 188.957031 156.132812 188.964844 156.625 C 188.976562 157.125 188.839844 158.75 188.953125 159.035156 C 189.109375 158.566406 189.285156 156.636719 189.25 156.046875 C 189.167969 154.710938 189.039062 153.371094 188.886719 152.039062 C 188.742188 150.78125 188.574219 149.523438 188.371094 148.273438 C 188.28125 147.75 188.1875 147.226562 188.082031 146.703125 C 187.996094 146.300781 187.902344 145.890625 187.789062 145.496094 C 187.613281 144.910156 187.5625 144.160156 187.535156 143.546875 C 187.503906 142.667969 187.523438 141.78125 187.566406 140.910156 C 187.632812 139.449219 187.765625 137.996094 187.925781 136.546875 C 187.566406 137.253906 187.179688 140.644531 187.132812 141.613281 M 187.957031 135.742188 C 187.957031 135.742188 190.949219 141.34375 191.285156 147.164062 C 191.621094 152.980469 191.035156 158.097656 189.933594 158.894531 C 188.835938 159.691406 188.351562 159.820312 188.554688 157.699219 C 188.757812 155.574219 187.792969 148.152344 187.007812 145.839844 C 186.226562 143.527344 187.222656 136.667969 187.222656 136.667969 Z M 187.957031 135.742188 " clip-rule="evenodd"/></clipPath><radialGradient gradientTransform="matrix(0.999864, 0, 0, 1.000136, 58.302005, 116.004117)" gradientUnits="userSpaceOnUse" r="8.534251" cx="130.76081" id="0f54634362" cy="31.577496" fx="130.76081" fy="31.577496"><stop stop-opacity="1" stop-color="rgb(7.499695%, 4.699707%, 5.499268%)" offset="0"/><stop stop-opacity="1" stop-color="rgb(7.499695%, 4.699707%, 5.499268%)" offset="1"/></radialGradient><clipPath id="d12b9a8f7b"><path d="M 188 120 L 209 120 L 209 135 L 188 135 Z M 188 120 " clip-rule="nonzero"/></clipPath><clipPath id="63938389c5"><path d="M 193.878906 131.886719 C 194.574219 131.527344 195.269531 131.148438 195.925781 130.722656 C 196.390625 130.425781 196.941406 130.042969 197.308594 129.625 C 197.554688 129.347656 197.824219 129.082031 198.09375 128.824219 C 198.441406 128.496094 198.800781 128.179688 199.164062 127.867188 C 200.023438 127.125 200.910156 126.414062 201.8125 125.71875 C 202.761719 124.988281 203.730469 124.273438 204.722656 123.597656 C 205.128906 123.320312 205.539062 123.050781 205.960938 122.796875 C 206.386719 122.535156 207.863281 121.84375 208.050781 121.601562 C 207.566406 121.699219 205.808594 122.511719 205.316406 122.839844 C 204.199219 123.578125 203.105469 124.359375 202.03125 125.15625 C 201.011719 125.910156 200.003906 126.683594 199.027344 127.488281 C 198.617188 127.824219 198.210938 128.167969 197.8125 128.523438 C 197.503906 128.796875 197.195312 129.082031 196.914062 129.382812 C 196.496094 129.824219 195.871094 130.246094 195.351562 130.574219 C 194.609375 131.042969 193.832031 131.464844 193.050781 131.867188 C 191.757812 132.535156 190.433594 133.152344 189.09375 133.734375 C 189.890625 133.695312 193.015625 132.332031 193.878906 131.886719 M 188.382812 134.109375 C 188.382812 134.109375 191.738281 128.71875 196.609375 125.519531 C 201.476562 122.316406 206.199219 120.265625 207.441406 120.820312 C 208.679688 121.375 209.03125 121.730469 207.09375 122.617188 C 205.15625 123.5 199.210938 128.050781 197.601562 129.882812 C 195.992188 131.714844 189.550781 134.285156 189.550781 134.285156 Z M 188.382812 134.109375 " clip-rule="evenodd"/></clipPath><radialGradient gradientTransform="matrix(0.999864, 0, 0, 1.000136, 58.302005, 116.004117)" gradientUnits="userSpaceOnUse" r="8.564483" cx="140.137976" id="ea7d70b8b4" cy="11.502663" fx="140.137976" fy="11.502663"><stop stop-opacity="1" stop-color="rgb(7.499695%, 4.699707%, 5.499268%)" offset="0"/><stop stop-opacity="1" stop-color="rgb(7.499695%, 4.699707%, 5.499268%)" offset="1"/></radialGradient><clipPath id="bd24b506e7"><path d="M 165 123 L 187 123 L 187 135 L 165 135 Z M 165 123 " clip-rule="nonzero"/></clipPath><clipPath id="01c4dfddc4"><path d="M 182.085938 130.90625 C 181.425781 130.484375 180.75 130.074219 180.054688 129.714844 C 179.5625 129.464844 178.957031 129.175781 178.414062 129.070312 C 178.046875 128.996094 177.683594 128.894531 177.328125 128.789062 C 176.867188 128.652344 176.414062 128.5 175.960938 128.339844 C 174.890625 127.964844 173.828125 127.550781 172.78125 127.121094 C 171.671875 126.664062 170.566406 126.179688 169.488281 125.660156 C 169.046875 125.445312 168.605469 125.226562 168.171875 124.988281 C 167.734375 124.75 166.398438 123.816406 166.09375 123.773438 C 166.421875 124.144531 168.003906 125.261719 168.53125 125.523438 C 169.730469 126.121094 170.957031 126.679688 172.183594 127.210938 C 173.34375 127.714844 174.519531 128.203125 175.703125 128.648438 C 176.199219 128.835938 176.699219 129.015625 177.203125 129.183594 C 177.597656 129.3125 178 129.4375 178.398438 129.53125 C 178.992188 129.671875 179.667969 130.003906 180.214844 130.289062 C 180.988281 130.699219 181.746094 131.160156 182.480469 131.632812 C 183.710938 132.421875 184.902344 133.261719 186.078125 134.128906 C 185.644531 133.460938 182.902344 131.433594 182.085938 130.90625 M 186.757812 134.558594 C 186.757812 134.558594 180.410156 134.347656 175.207031 131.730469 C 170 129.113281 165.863281 126.042969 165.722656 124.695312 C 165.582031 123.34375 165.714844 122.863281 167.453125 124.097656 C 169.1875 125.332031 176.097656 128.207031 178.488281 128.6875 C 180.878906 129.164062 186.324219 133.457031 186.324219 133.457031 Z M 186.757812 134.558594 " clip-rule="evenodd"/></clipPath><radialGradient gradientTransform="matrix(0.999864, 0, 0, 1.000136, 58.302005, 116.004117)" gradientUnits="userSpaceOnUse" r="8.433817" cx="117.933557" id="c7581fefcd" cy="12.965092" fx="117.933557" fy="12.965092"><stop stop-opacity="1" stop-color="rgb(7.499695%, 4.699707%, 5.499268%)" offset="0"/><stop stop-opacity="1" stop-color="rgb(7.499695%, 4.699707%, 5.499268%)" offset="1"/></radialGradient><clipPath id="3b01180f95"><path d="M 185 135 L 191 135 L 191 160 L 185 160 Z M 185 135 " clip-rule="nonzero"/></clipPath><clipPath id="fa75bf2d9c"><path d="M 186.542969 141.554688 C 186.4375 142.328125 186.347656 143.117188 186.316406 143.898438 C 186.292969 144.449219 186.289062 145.121094 186.417969 145.660156 C 186.503906 146.023438 186.566406 146.394531 186.617188 146.765625 C 186.6875 147.238281 186.742188 147.714844 186.785156 148.1875 C 186.898438 149.320312 186.96875 150.457031 187.015625 151.589844 C 187.066406 152.789062 187.09375 153.992188 187.074219 155.191406 C 187.066406 155.6875 187.050781 156.179688 187.015625 156.667969 C 186.984375 157.167969 186.699219 158.773438 186.789062 159.066406 C 186.984375 158.613281 187.335938 156.707031 187.351562 156.117188 C 187.390625 154.78125 187.382812 153.433594 187.351562 152.097656 C 187.320312 150.828125 187.269531 149.558594 187.175781 148.296875 C 187.136719 147.765625 187.089844 147.238281 187.027344 146.710938 C 186.980469 146.296875 186.925781 145.882812 186.84375 145.476562 C 186.722656 144.878906 186.738281 144.128906 186.769531 143.511719 C 186.816406 142.636719 186.917969 141.757812 187.035156 140.886719 C 187.238281 139.445312 187.496094 138.007812 187.789062 136.578125 C 187.363281 137.25 186.679688 140.589844 186.542969 141.554688 M 187.894531 135.78125 C 187.894531 135.78125 190.367188 141.628906 190.179688 147.453125 C 189.988281 153.277344 188.945312 158.320312 187.777344 159.015625 C 186.609375 159.710938 186.117188 159.792969 186.511719 157.699219 C 186.902344 155.605469 186.609375 148.121094 186.039062 145.75 C 185.46875 143.378906 187.074219 136.632812 187.074219 136.632812 Z M 187.894531 135.78125 " clip-rule="evenodd"/></clipPath><radialGradient gradientTransform="matrix(0.999864, 0, 0, 1.000136, 58.302005, 116.004117)" gradientUnits="userSpaceOnUse" r="8.505556" cx="129.768777" id="4d703cf408" cy="31.61029" fx="129.768777" fy="31.61029"><stop stop-opacity="1" stop-color="rgb(7.499695%, 4.699707%, 5.499268%)" offset="0"/><stop stop-opacity="1" stop-color="rgb(7.499695%, 4.699707%, 5.499268%)" offset="1"/></radialGradient><clipPath id="f4a6d34dc3"><path d="M 188 122 L 210 122 L 210 135 L 188 135 Z M 188 122 " clip-rule="nonzero"/></clipPath><clipPath id="131c57823d"><path d="M 194.136719 132.472656 C 194.863281 132.179688 195.585938 131.863281 196.28125 131.5 C 196.769531 131.242188 197.355469 130.910156 197.753906 130.53125 C 198.023438 130.273438 198.320312 130.035156 198.613281 129.804688 C 198.988281 129.507812 199.371094 129.222656 199.761719 128.945312 C 200.683594 128.285156 201.632812 127.65625 202.59375 127.046875 C 203.605469 126.402344 204.632812 125.777344 205.683594 125.195312 C 206.113281 124.957031 206.546875 124.722656 206.988281 124.503906 C 207.433594 124.285156 208.96875 123.730469 209.175781 123.503906 C 208.6875 123.558594 206.863281 124.210938 206.34375 124.492188 C 205.164062 125.128906 204.003906 125.808594 202.859375 126.503906 C 201.78125 127.164062 200.707031 127.84375 199.660156 128.554688 C 199.222656 128.855469 198.785156 129.160156 198.359375 129.476562 C 198.027344 129.722656 197.691406 129.976562 197.382812 130.25 C 196.925781 130.65625 196.265625 131.015625 195.71875 131.296875 C 194.941406 131.695312 194.125 132.050781 193.316406 132.378906 C 191.964844 132.929688 190.589844 133.421875 189.207031 133.882812 C 190.003906 133.914062 193.234375 132.839844 194.136719 132.472656 M 188.464844 134.191406 C 188.464844 134.191406 192.289062 129.125 197.429688 126.375 C 202.566406 123.625 207.453125 122.011719 208.640625 122.671875 C 209.824219 123.335938 210.140625 123.722656 208.132812 124.429688 C 206.121094 125.136719 199.792969 129.132812 198.023438 130.8125 C 196.253906 132.492188 189.613281 134.472656 189.613281 134.472656 Z M 188.464844 134.191406 " clip-rule="evenodd"/></clipPath><radialGradient gradientTransform="matrix(0.999864, 0, 0, 1.000136, 58.302005, 116.004117)" gradientUnits="userSpaceOnUse" r="8.579855" cx="140.741087" id="6ad98a434e" cy="12.492646" fx="140.741087" fy="12.492646"><stop stop-opacity="1" stop-color="rgb(7.499695%, 4.699707%, 5.499268%)" offset="0"/><stop stop-opacity="1" stop-color="rgb(7.499695%, 4.699707%, 5.499268%)" offset="1"/></radialGradient><clipPath id="c889c9d646"><path d="M 166 121 L 187 121 L 187 135 L 166 135 Z M 166 121 " clip-rule="nonzero"/></clipPath><clipPath id="c71a0477c8"><path d="M 182.480469 130.4375 C 181.863281 129.953125 181.222656 129.484375 180.5625 129.066406 C 180.097656 128.769531 179.515625 128.429688 178.988281 128.273438 C 178.628906 128.167969 178.277344 128.03125 177.929688 127.894531 C 177.488281 127.71875 177.046875 127.523438 176.613281 127.328125 C 175.578125 126.859375 174.558594 126.351562 173.554688 125.824219 C 172.488281 125.269531 171.433594 124.691406 170.40625 124.074219 C 169.984375 123.820312 169.5625 123.5625 169.15625 123.285156 C 168.742188 123.007812 167.492188 121.960938 167.195312 121.890625 C 167.488281 122.289062 168.960938 123.542969 169.464844 123.851562 C 170.605469 124.554688 171.773438 125.222656 172.949219 125.863281 C 174.058594 126.46875 175.1875 127.058594 176.324219 127.609375 C 176.804688 127.839844 177.285156 128.066406 177.773438 128.277344 C 178.152344 128.441406 178.542969 128.601562 178.933594 128.734375 C 179.511719 128.929688 180.152344 129.320312 180.671875 129.652344 C 181.40625 130.128906 182.117188 130.65625 182.808594 131.195312 C 183.960938 132.089844 185.074219 133.035156 186.167969 134.003906 C 185.792969 133.296875 183.246094 131.03125 182.480469 130.4375 M 186.804688 134.492188 C 186.804688 134.492188 180.503906 133.710938 175.554688 130.636719 C 170.605469 127.558594 166.761719 124.132812 166.742188 122.773438 C 166.726562 121.414062 166.898438 120.945312 168.519531 122.335938 C 170.136719 123.722656 176.757812 127.207031 179.097656 127.898438 C 181.4375 128.589844 186.472656 133.355469 186.472656 133.355469 Z M 186.804688 134.492188 " clip-rule="evenodd"/></clipPath><radialGradient gradientTransform="matrix(0.999864, 0, 0, 1.000136, 58.302005, 116.004117)" gradientUnits="userSpaceOnUse" r="8.45124" cx="118.486446" id="1be2609747" cy="11.987919" fx="118.486446" fy="11.987919"><stop stop-opacity="1" stop-color="rgb(7.499695%, 4.699707%, 5.499268%)" offset="0"/><stop stop-opacity="1" stop-color="rgb(7.499695%, 4.699707%, 5.499268%)" offset="1"/></radialGradient><clipPath id="4babe1036f"><path d="M 203 157 L 252 157 L 252 168 L 203 168 Z M 203 157 " clip-rule="nonzero"/></clipPath><clipPath id="d078277b55"><path d="M 223.679688 160.898438 L 203.734375 167.847656 L 238.753906 167.847656 L 250.925781 161.816406 L 251.449219 157.257812 C 248.683594 158.285156 243.898438 159.882812 239.464844 160.457031 C 233.460938 161.230469 225.277344 160.960938 223.679688 160.898438 " clip-rule="evenodd"/></clipPath><radialGradient gradientTransform="matrix(0.999864, 0, 0, 1.000136, 58.302005, 116.004117)" gradientUnits="userSpaceOnUse" r="17.281666" cx="169.312251" id="7a06992edc" cy="46.541003" fx="169.312251" fy="46.541003"><stop stop-opacity="1" stop-color="rgb(7.499695%, 4.699707%, 5.499268%)" offset="0"/><stop stop-opacity="1" stop-color="rgb(7.499695%, 4.699707%, 5.499268%)" offset="1"/></radialGradient><clipPath id="f7c0c52b13"><path d="M 132 157 L 172 157 L 172 168 L 132 168 Z M 132 157 " clip-rule="nonzero"/></clipPath><clipPath id="efdd61a73e"><path d="M 171.664062 167.847656 C 165.789062 165.546875 157.8125 162.601562 154.121094 162.015625 C 151.453125 161.597656 148.289062 160.882812 145.273438 160.113281 C 140.816406 158.980469 136.527344 157.691406 134.660156 157.070312 C 134.585938 157.042969 134.511719 157.019531 134.433594 157 L 132.246094 160.609375 L 137.957031 163.027344 C 138.636719 163.316406 138.988281 164.050781 138.820312 164.746094 L 138.042969 167.847656 Z M 171.664062 167.847656 " clip-rule="evenodd"/></clipPath><radialGradient gradientTransform="matrix(0.999864, 0, 0, 1.000136, 58.302005, 116.004117)" gradientUnits="userSpaceOnUse" r="14.456728" cx="93.66616" id="9e183eccca" cy="46.4129" fx="93.66616" fy="46.4129"><stop stop-opacity="1" stop-color="rgb(7.499695%, 4.699707%, 5.499268%)" offset="0"/><stop stop-opacity="1" stop-color="rgb(7.499695%, 4.699707%, 5.499268%)" offset="1"/></radialGradient><clipPath id="191e887153"><path d="M 86 151 L 287 151 L 287 167 L 86 167 Z M 86 151 " clip-rule="nonzero"/></clipPath><clipPath id="c79aa98dd0"><path d="M 135.707031 165.621094 L 136.355469 163.03125 L 130.238281 160.4375 C 130.171875 160.410156 130.109375 160.378906 130.046875 160.339844 C 129.351562 159.917969 129.125 159.011719 129.546875 158.3125 L 131.390625 155.273438 C 130.707031 155.539062 130.058594 155.851562 129.503906 156.117188 C 129.039062 156.339844 128.625 156.539062 128.292969 156.671875 C 126.566406 157.363281 117.6875 158.4375 116.292969 158.601562 L 98.695312 165.621094 Z M 135.144531 154.777344 L 132.957031 158.382812 L 138.667969 160.804688 C 139.347656 161.089844 139.699219 161.828125 139.527344 162.523438 L 139.53125 162.523438 L 138.753906 165.625 L 172.375 165.625 C 166.5 163.324219 158.523438 160.378906 154.832031 159.792969 C 152.160156 159.375 149 158.660156 145.984375 157.890625 C 141.527344 156.757812 137.238281 155.46875 135.371094 154.847656 C 135.296875 154.820312 135.222656 154.796875 135.144531 154.777344 Z M 252.515625 151.445312 C 252.769531 151.316406 253.0625 151.253906 253.363281 151.289062 C 253.640625 151.320312 253.890625 151.425781 254.097656 151.585938 C 260.09375 155.515625 276.003906 163.035156 286.484375 166.890625 L 86.960938 166.890625 C 88.246094 166.460938 89.257812 166.089844 90.726562 165.621094 L 115.289062 155.824219 C 115.4375 155.753906 115.597656 155.703125 115.773438 155.683594 C 115.800781 155.679688 125.691406 154.527344 127.191406 153.925781 C 127.5 153.804688 127.84375 153.640625 128.230469 153.453125 C 130.273438 152.472656 133.273438 151.035156 136.296875 152.042969 C 138.058594 152.632812 142.222656 153.878906 146.710938 155.019531 C 149.714844 155.785156 152.796875 156.484375 155.28125 156.875 C 161.417969 157.847656 177.964844 164.652344 180.300781 165.625 L 194.75 165.625 L 222.941406 155.804688 C 223.121094 155.738281 223.316406 155.707031 223.515625 155.714844 C 223.542969 155.714844 232.6875 156.128906 239.089844 155.304688 C 245.011719 154.539062 251.652344 151.808594 252.515625 151.445312 Z M 251.449219 155.035156 C 248.683594 156.0625 243.898438 157.660156 239.464844 158.234375 C 233.460938 159.007812 225.277344 158.738281 223.679688 158.675781 L 203.734375 165.621094 L 238.753906 165.621094 L 250.925781 159.59375 Z M 276.324219 165.621094 C 269.898438 162.96875 260.558594 158.890625 254.402344 155.246094 L 253.773438 160.726562 C 253.710938 161.269531 253.363281 161.710938 252.894531 161.914062 L 245.414062 165.621094 Z M 276.324219 165.621094 " clip-rule="nonzero"/></clipPath><radialGradient gradientTransform="matrix(0.999864, 0, 0, 1.000136, 58.302005, 116.004117)" gradientUnits="userSpaceOnUse" r="70.76792" cx="128.437521" id="9e893dd870" cy="43.074521" fx="128.437521" fy="43.074521"><stop stop-opacity="1" stop-color="rgb(7.499695%, 4.699707%, 5.499268%)" offset="0"/><stop stop-opacity="1" stop-color="rgb(7.499695%, 4.699707%, 5.499268%)" offset="1"/></radialGradient><clipPath id="2ed4d3f9fc"><path d="M 90 172 L 283 172 L 283 176 L 90 176 Z M 90 172 " clip-rule="nonzero"/></clipPath><clipPath id="eaf9f471d2"><path d="M 186.386719 172.152344 C 239.304688 172.152344 282.199219 172.914062 282.199219 173.851562 C 282.199219 174.789062 239.304688 175.550781 186.386719 175.550781 C 133.472656 175.550781 90.578125 174.789062 90.578125 173.851562 C 90.578125 172.914062 133.472656 172.152344 186.386719 172.152344 " clip-rule="evenodd"/></clipPath><radialGradient gradientTransform="matrix(0.999864, 0, 0, 1.000136, 58.302005, 116.004117)" gradientUnits="userSpaceOnUse" r="67.76928" cx="128.103432" id="68929465c8" cy="57.840236" fx="128.103432" fy="57.840236"><stop stop-opacity="1" stop-color="rgb(7.499695%, 4.699707%, 5.499268%)" offset="0"/><stop stop-opacity="1" stop-color="rgb(7.499695%, 4.699707%, 5.499268%)" offset="1"/></radialGradient><clipPath id="2d5d0ceb6f"><path d="M 123 179 L 250 179 L 250 183 L 123 183 Z M 123 179 " clip-rule="nonzero"/></clipPath><clipPath id="381825c013"><path d="M 186.386719 179.132812 C 221.34375 179.132812 249.683594 179.890625 249.683594 180.828125 C 249.683594 181.765625 221.34375 182.527344 186.386719 182.527344 C 151.429688 182.527344 123.09375 181.769531 123.09375 180.832031 C 123.09375 179.890625 151.429688 179.132812 186.386719 179.132812 " clip-rule="evenodd"/></clipPath><radialGradient gradientTransform="matrix(0.999864, 0, 0, 1.000136, 58.302005, 116.004117)" gradientUnits="userSpaceOnUse" r="44.778811" cx="128.103432" id="0e18c405cf" cy="64.817264" fx="128.103432" fy="64.817264"><stop stop-opacity="1" stop-color="rgb(7.499695%, 4.699707%, 5.499268%)" offset="0"/><stop stop-opacity="1" stop-color="rgb(7.499695%, 4.699707%, 5.499268%)" offset="1"/></radialGradient><clipPath id="96f0f252d6"><path d="M 77 165 L 296 165 L 296 169 L 77 169 Z M 77 165 " clip-rule="nonzero"/></clipPath><clipPath id="fa371a4053"><path d="M 186.386719 165.191406 C 246.722656 165.191406 295.636719 165.953125 295.636719 166.890625 C 295.636719 167.828125 246.722656 168.585938 186.386719 168.585938 C 126.054688 168.585938 77.140625 167.828125 77.140625 166.890625 C 77.140625 165.953125 126.054688 165.191406 186.386719 165.191406 " clip-rule="evenodd"/></clipPath><radialGradient gradientTransform="matrix(0.999864, 0, 0, 1.000136, 58.302005, 116.004117)" gradientUnits="userSpaceOnUse" r="77.269427" cx="128.103949" id="190e24e249" cy="50.878071" fx="128.103949" fy="50.878071"><stop stop-opacity="1" stop-color="rgb(7.499695%, 4.699707%, 5.499268%)" offset="0"/><stop stop-opacity="1" stop-color="rgb(7.499695%, 4.699707%, 5.499268%)" offset="1"/></radialGradient><clipPath id="17534898bb"><path d="M 231.082031 230.230469 L 314.472656 230.230469 L 314.472656 233.003906 L 231.082031 233.003906 Z M 231.082031 230.230469 " clip-rule="nonzero"/></clipPath><radialGradient gradientTransform="matrix(0.999864, 0, 0, 1.000136, 58.302005, 116.004117)" gradientUnits="userSpaceOnUse" r="29.503245" cx="214.506117" id="dd30ccfd13" cy="115.603099" fx="214.506117" fy="115.603099"><stop stop-opacity="1" stop-color="rgb(7.499695%, 4.699707%, 5.499268%)" offset="0"/><stop stop-opacity="1" stop-color="rgb(7.499695%, 4.699707%, 5.499268%)" offset="1"/></radialGradient><clipPath id="f58ea8da2e"><path d="M 58.300781 230.230469 L 141.691406 230.230469 L 141.691406 233.003906 L 58.300781 233.003906 Z M 58.300781 230.230469 " clip-rule="nonzero"/></clipPath><radialGradient gradientTransform="matrix(0.999864, 0, 0, 1.000136, 58.302005, 116.004117)" gradientUnits="userSpaceOnUse" r="29.503245" cx="41.70074" id="8d15351133" cy="115.603099" fx="41.70074" fy="115.603099"><stop stop-opacity="1" stop-color="rgb(7.499695%, 4.699707%, 5.499268%)" offset="0"/><stop stop-opacity="1" stop-color="rgb(7.499695%, 4.699707%, 5.499268%)" offset="1"/></radialGradient><clipPath id="f11fe4f643"><path d="M 49.96875 187.976562 L 322.757812 187.976562 L 322.757812 234.445312 L 49.96875 234.445312 Z M 49.96875 187.976562 " clip-rule="nonzero"/></clipPath></defs><g clip-path="url(#2f69a5595b)"><g clip-path="url(#cc3ecf4be2)"><path fill="url(#d8cc214947)" d="M 95.5 133.492188 L 95.5 141.59375 L 279.46875 141.59375 L 279.46875 133.492188 Z M 95.5 133.492188 " fill-rule="nonzero"/></g></g><g clip-path="url(#5ce5109ca2)"><g clip-path="url(#832b205a0e)"><path fill="url(#5cc38b50e8)" d="M 94.078125 116.003906 L 94.078125 157.386719 L 280.894531 157.386719 L 280.894531 116.003906 Z M 94.078125 116.003906 " fill-rule="nonzero"/></g></g><g clip-path="url(#3115fe1ed7)"><g clip-path="url(#0bb1be72d0)"><path fill="url(#8d9f126a8f)" d="M 207.726562 144.746094 L 207.726562 154.300781 L 251.324219 154.300781 L 251.324219 144.746094 Z M 207.726562 144.746094 " fill-rule="nonzero"/></g></g><g clip-path="url(#24f0db6060)"><g clip-path="url(#e3a9c0544d)"><path fill="url(#5374001790)" d="M 123.648438 144.75 L 123.648438 154.304688 L 167.25 154.304688 L 167.25 144.75 Z M 123.648438 144.75 " fill-rule="nonzero"/></g></g><g clip-path="url(#560469ea16)"><g clip-path="url(#3d75162278)"><path fill="url(#0f54634362)" d="M 186.226562 135.742188 L 186.226562 159.820312 L 191.621094 159.820312 L 191.621094 135.742188 Z M 186.226562 135.742188 " fill-rule="nonzero"/></g></g><g clip-path="url(#d12b9a8f7b)"><g clip-path="url(#63938389c5)"><path fill="url(#ea7d70b8b4)" d="M 188.382812 120.265625 L 188.382812 134.285156 L 209.03125 134.285156 L 209.03125 120.265625 Z M 188.382812 120.265625 " fill-rule="nonzero"/></g></g><g clip-path="url(#bd24b506e7)"><g clip-path="url(#01c4dfddc4)"><path fill="url(#c7581fefcd)" d="M 165.582031 122.863281 L 165.582031 134.558594 L 186.757812 134.558594 L 186.757812 122.863281 Z M 165.582031 122.863281 " fill-rule="nonzero"/></g></g><g clip-path="url(#3b01180f95)"><g clip-path="url(#fa75bf2d9c)"><path fill="url(#4d703cf408)" d="M 185.46875 135.78125 L 185.46875 159.792969 L 190.367188 159.792969 L 190.367188 135.78125 Z M 185.46875 135.78125 " fill-rule="nonzero"/></g></g><g clip-path="url(#f4a6d34dc3)"><g clip-path="url(#131c57823d)"><path fill="url(#6ad98a434e)" d="M 188.464844 122.011719 L 188.464844 134.472656 L 210.140625 134.472656 L 210.140625 122.011719 Z M 188.464844 122.011719 " fill-rule="nonzero"/></g></g><g clip-path="url(#c889c9d646)"><g clip-path="url(#c71a0477c8)"><path fill="url(#1be2609747)" d="M 166.726562 120.945312 L 166.726562 134.492188 L 186.804688 134.492188 L 186.804688 120.945312 Z M 166.726562 120.945312 " fill-rule="nonzero"/></g></g><g clip-path="url(#4babe1036f)"><g clip-path="url(#d078277b55)"><path fill="url(#7a06992edc)" d="M 203.734375 157.257812 L 203.734375 167.847656 L 251.449219 167.847656 L 251.449219 157.257812 Z M 203.734375 157.257812 " fill-rule="nonzero"/></g></g><g clip-path="url(#f7c0c52b13)"><g clip-path="url(#efdd61a73e)"><path fill="url(#9e183eccca)" d="M 132.246094 157 L 132.246094 167.847656 L 171.664062 167.847656 L 171.664062 157 Z M 132.246094 157 " fill-rule="nonzero"/></g></g><g clip-path="url(#191e887153)"><g clip-path="url(#c79aa98dd0)"><path fill="url(#9e893dd870)" d="M 86.960938 151.035156 L 86.960938 166.890625 L 286.484375 166.890625 L 286.484375 151.035156 Z M 86.960938 151.035156 " fill-rule="nonzero"/></g></g><g clip-path="url(#2ed4d3f9fc)"><g clip-path="url(#eaf9f471d2)"><path fill="url(#68929465c8)" d="M 90.578125 172.152344 L 90.578125 175.550781 L 282.199219 175.550781 L 282.199219 172.152344 Z M 90.578125 172.152344 " fill-rule="nonzero"/></g></g><g clip-path="url(#2d5d0ceb6f)"><g clip-path="url(#381825c013)"><path fill="url(#0e18c405cf)" d="M 123.09375 179.132812 L 123.09375 182.527344 L 249.683594 182.527344 L 249.683594 179.132812 Z M 123.09375 179.132812 " fill-rule="nonzero"/></g></g><g clip-path="url(#96f0f252d6)"><g clip-path="url(#fa371a4053)"><path fill="url(#190e24e249)" d="M 77.140625 165.191406 L 77.140625 168.585938 L 295.636719 168.585938 L 295.636719 165.191406 Z M 77.140625 165.191406 " fill-rule="nonzero"/></g></g><g clip-path="url(#17534898bb)"><path fill="url(#dd30ccfd13)" d="M 231.082031 230.230469 L 231.082031 233.003906 L 314.472656 233.003906 L 314.472656 230.230469 Z M 231.082031 230.230469 " fill-rule="nonzero"/></g><g clip-path="url(#f58ea8da2e)"><path fill="url(#8d15351133)" d="M 58.300781 230.230469 L 58.300781 233.003906 L 141.691406 233.003906 L 141.691406 230.230469 Z M 58.300781 230.230469 " fill-rule="nonzero"/></g><g clip-path="url(#f11fe4f643)"><path fill="#fefefe" d="M 49.96875 187.976562 L 323.015625 187.976562 L 323.015625 234.265625 L 49.96875 234.265625 Z M 49.96875 187.976562 " fill-opacity="1" fill-rule="nonzero"/></g><g fill="#d03030" fill-opacity="1"><g transform="translate(117.748365, 236.197522)"><g><path d="M 8.984375 -15.296875 L 11.53125 -15.296875 L 10.390625 -35.421875 L 10.171875 -35.421875 Z M 15.296875 -44.1875 L 19.75 0 L 12.40625 0 L 11.859375 -9.421875 L 8.703125 -9.421875 L 8.15625 0 L 0.875 0 L 5.21875 -44.1875 Z M 15.296875 -44.1875 "/></g></g></g><g fill="#d03030" fill-opacity="1"><g transform="translate(138.316319, 236.197522)"><g><path d="M 9.46875 -44.1875 L 9.46875 0 L 1.90625 0 L 1.90625 -44.1875 Z M 9.46875 -44.1875 "/></g></g></g><g fill="#d03030" fill-opacity="1"><g transform="translate(149.416471, 236.197522)"><g><path d="M 9.46875 -24.921875 C 9.539062 -24.921875 9.648438 -24.910156 9.796875 -24.890625 C 9.941406 -24.878906 10.050781 -24.875 10.125 -24.875 C 10.78125 -24.875 11.234375 -25.023438 11.484375 -25.328125 C 11.734375 -25.640625 11.859375 -26.25 11.859375 -27.15625 L 11.859375 -35.640625 C 11.859375 -36.953125 11.734375 -37.742188 11.484375 -38.015625 C 11.234375 -38.285156 10.722656 -38.421875 9.953125 -38.421875 L 9.46875 -38.421875 Z M 11.15625 -44.1875 C 14.457031 -44.1875 16.648438 -43.625 17.734375 -42.5 C 18.828125 -41.414062 19.375 -38.988281 19.375 -35.21875 L 19.375 -29.4375 C 19.375 -27.039062 19.117188 -25.300781 18.609375 -24.21875 C 18.140625 -23.238281 17.253906 -22.441406 15.953125 -21.828125 C 17.179688 -21.347656 18.054688 -20.609375 18.578125 -19.609375 C 19.109375 -18.617188 19.375 -17.085938 19.375 -15.015625 L 19.375 0 L 11.859375 0 L 11.859375 -16.375 C 11.859375 -17.101562 11.710938 -17.617188 11.421875 -17.921875 C 11.140625 -18.234375 10.6875 -18.390625 10.0625 -18.390625 C 9.988281 -18.390625 9.890625 -18.378906 9.765625 -18.359375 C 9.640625 -18.347656 9.539062 -18.34375 9.46875 -18.34375 L 9.46875 0 L 1.90625 0 L 1.90625 -44.1875 Z M 11.15625 -44.1875 "/></g></g></g><g fill="#d03030" fill-opacity="1"><g transform="translate(170.365306, 236.197522)"><g><path d="M 19.109375 -29.109375 L 11.53125 -29.109375 L 11.53125 -36.6875 C 11.53125 -37.945312 11.113281 -38.578125 10.28125 -38.578125 C 9.519531 -38.578125 9.140625 -37.945312 9.140625 -36.6875 L 9.140625 -7.453125 C 9.140625 -6.222656 9.554688 -5.609375 10.390625 -5.609375 C 10.828125 -5.609375 11.125 -5.742188 11.28125 -6.015625 C 11.445312 -6.285156 11.53125 -6.765625 11.53125 -7.453125 L 11.53125 -18.71875 L 19.109375 -18.71875 L 19.109375 -8.546875 C 19.109375 -4.703125 18.582031 -2.253906 17.53125 -1.203125 C 16.476562 -0.222656 14.117188 0.265625 10.453125 0.265625 C 6.640625 0.265625 4.222656 -0.222656 3.203125 -1.203125 C 2.148438 -2.253906 1.625 -4.703125 1.625 -8.546875 L 1.625 -35.640625 C 1.625 -39.566406 2.132812 -42.019531 3.15625 -43 C 4.175781 -43.976562 6.570312 -44.46875 10.34375 -44.46875 C 14.144531 -44.46875 16.554688 -43.957031 17.578125 -42.9375 C 18.597656 -41.925781 19.109375 -39.492188 19.109375 -35.640625 Z M 19.109375 -29.109375 "/></g></g></g><g fill="#d03030" fill-opacity="1"><g transform="translate(190.606783, 236.197522)"><g><path d="M 9.46875 -24.921875 C 9.539062 -24.921875 9.648438 -24.910156 9.796875 -24.890625 C 9.941406 -24.878906 10.050781 -24.875 10.125 -24.875 C 10.78125 -24.875 11.234375 -25.023438 11.484375 -25.328125 C 11.734375 -25.640625 11.859375 -26.25 11.859375 -27.15625 L 11.859375 -35.640625 C 11.859375 -36.953125 11.734375 -37.742188 11.484375 -38.015625 C 11.234375 -38.285156 10.722656 -38.421875 9.953125 -38.421875 L 9.46875 -38.421875 Z M 11.15625 -44.1875 C 14.457031 -44.1875 16.648438 -43.625 17.734375 -42.5 C 18.828125 -41.414062 19.375 -38.988281 19.375 -35.21875 L 19.375 -29.4375 C 19.375 -27.039062 19.117188 -25.300781 18.609375 -24.21875 C 18.140625 -23.238281 17.253906 -22.441406 15.953125 -21.828125 C 17.179688 -21.347656 18.054688 -20.609375 18.578125 -19.609375 C 19.109375 -18.617188 19.375 -17.085938 19.375 -15.015625 L 19.375 0 L 11.859375 0 L 11.859375 -16.375 C 11.859375 -17.101562 11.710938 -17.617188 11.421875 -17.921875 C 11.140625 -18.234375 10.6875 -18.390625 10.0625 -18.390625 C 9.988281 -18.390625 9.890625 -18.378906 9.765625 -18.359375 C 9.640625 -18.347656 9.539062 -18.34375 9.46875 -18.34375 L 9.46875 0 L 1.90625 0 L 1.90625 -44.1875 Z M 11.15625 -44.1875 "/></g></g></g><g fill="#d03030" fill-opacity="1"><g transform="translate(211.555615, 236.197522)"><g><path d="M 8.984375 -15.296875 L 11.53125 -15.296875 L 10.390625 -35.421875 L 10.171875 -35.421875 Z M 15.296875 -44.1875 L 19.75 0 L 12.40625 0 L 11.859375 -9.421875 L 8.703125 -9.421875 L 8.15625 0 L 0.875 0 L 5.21875 -44.1875 Z M 15.296875 -44.1875 "/></g></g></g><g fill="#d03030" fill-opacity="1"><g transform="translate(232.123573, 236.197522)"><g><path d="M 14.09375 -44.1875 L 14.09375 -38.421875 L 9.578125 -38.421875 L 9.578125 -27.15625 L 14.09375 -27.15625 L 14.09375 -21.328125 L 9.578125 -21.328125 L 9.578125 0 L 2.015625 0 L 2.015625 -44.1875 Z M 14.09375 -44.1875 "/></g></g></g><g fill="#d03030" fill-opacity="1"><g transform="translate(247.359089, 236.197522)"><g><path d="M 15.40625 -44.1875 L 15.40625 -38.3125 L 11.703125 -38.3125 L 11.703125 0 L 4.140625 0 L 4.140625 -38.3125 L 0.4375 -38.3125 L 0.4375 -44.1875 Z M 15.40625 -44.1875 "/></g></g></g><g fill="#d03030" fill-opacity="1"><g transform="translate(65.328649, 301.064502)"><g><path d="M 19 -28.953125 L 11.484375 -28.953125 L 11.484375 -36.734375 C 11.484375 -37.960938 11.066406 -38.578125 10.234375 -38.578125 C 9.828125 -38.578125 9.539062 -38.441406 9.375 -38.171875 C 9.21875 -37.898438 9.140625 -37.421875 9.140625 -36.734375 L 9.140625 -29.875 C 9.140625 -29.082031 9.253906 -28.507812 9.484375 -28.15625 C 9.722656 -27.8125 10.171875 -27.441406 10.828125 -27.046875 L 15.453125 -24.375 C 16.722656 -23.65625 17.628906 -22.804688 18.171875 -21.828125 C 18.722656 -20.847656 19 -19.46875 19 -17.6875 L 19 -8.484375 C 19 -4.492188 18.488281 -2.046875 17.46875 -1.140625 C 16.414062 -0.203125 14.003906 0.265625 10.234375 0.265625 C 6.492188 0.265625 4.117188 -0.222656 3.109375 -1.203125 C 2.054688 -2.253906 1.53125 -4.679688 1.53125 -8.484375 L 1.53125 -18.234375 L 9.140625 -18.234375 L 9.140625 -7.453125 C 9.140625 -6.179688 9.554688 -5.546875 10.390625 -5.546875 C 11.117188 -5.546875 11.484375 -6.179688 11.484375 -7.453125 L 11.484375 -16.8125 C 11.484375 -17.613281 11.375 -18.175781 11.15625 -18.5 C 10.9375 -18.832031 10.484375 -19.195312 9.796875 -19.59375 L 4.953125 -22.421875 C 3.722656 -23.148438 2.84375 -24.019531 2.3125 -25.03125 C 1.789062 -26.050781 1.53125 -27.484375 1.53125 -29.328125 L 1.53125 -35.640625 C 1.53125 -39.421875 2.054688 -41.835938 3.109375 -42.890625 C 4.160156 -43.941406 6.550781 -44.46875 10.28125 -44.46875 C 13.988281 -44.46875 16.367188 -43.976562 17.421875 -43 C 18.472656 -42.019531 19 -39.566406 19 -35.640625 Z M 19 -28.953125 "/></g></g></g><g fill="#d03030" fill-opacity="1"><g transform="translate(85.78777, 301.064502)"><g><path d="M 9.3125 -44.1875 L 9.3125 -7.453125 C 9.3125 -6.179688 9.707031 -5.546875 10.5 -5.546875 C 10.90625 -5.546875 11.195312 -5.679688 11.375 -5.953125 C 11.550781 -6.234375 11.640625 -6.734375 11.640625 -7.453125 L 11.640625 -44.1875 L 19.203125 -44.1875 L 19.203125 -8.484375 C 19.203125 -4.679688 18.675781 -2.253906 17.625 -1.203125 C 16.570312 -0.222656 14.21875 0.265625 10.5625 0.265625 C 6.71875 0.265625 4.285156 -0.222656 3.265625 -1.203125 C 2.242188 -2.210938 1.734375 -4.640625 1.734375 -8.484375 L 1.734375 -44.1875 Z M 9.3125 -44.1875 "/></g></g></g><g fill="#d03030" fill-opacity="1"><g transform="translate(106.464544, 301.064502)"><g><path d="M 19 -28.953125 L 11.484375 -28.953125 L 11.484375 -36.734375 C 11.484375 -37.960938 11.066406 -38.578125 10.234375 -38.578125 C 9.828125 -38.578125 9.539062 -38.441406 9.375 -38.171875 C 9.21875 -37.898438 9.140625 -37.421875 9.140625 -36.734375 L 9.140625 -29.875 C 9.140625 -29.082031 9.253906 -28.507812 9.484375 -28.15625 C 9.722656 -27.8125 10.171875 -27.441406 10.828125 -27.046875 L 15.453125 -24.375 C 16.722656 -23.65625 17.628906 -22.804688 18.171875 -21.828125 C 18.722656 -20.847656 19 -19.46875 19 -17.6875 L 19 -8.484375 C 19 -4.492188 18.488281 -2.046875 17.46875 -1.140625 C 16.414062 -0.203125 14.003906 0.265625 10.234375 0.265625 C 6.492188 0.265625 4.117188 -0.222656 3.109375 -1.203125 C 2.054688 -2.253906 1.53125 -4.679688 1.53125 -8.484375 L 1.53125 -18.234375 L 9.140625 -18.234375 L 9.140625 -7.453125 C 9.140625 -6.179688 9.554688 -5.546875 10.390625 -5.546875 C 11.117188 -5.546875 11.484375 -6.179688 11.484375 -7.453125 L 11.484375 -16.8125 C 11.484375 -17.613281 11.375 -18.175781 11.15625 -18.5 C 10.9375 -18.832031 10.484375 -19.195312 9.796875 -19.59375 L 4.953125 -22.421875 C 3.722656 -23.148438 2.84375 -24.019531 2.3125 -25.03125 C 1.789062 -26.050781 1.53125 -27.484375 1.53125 -29.328125 L 1.53125 -35.640625 C 1.53125 -39.421875 2.054688 -41.835938 3.109375 -42.890625 C 4.160156 -43.941406 6.550781 -44.46875 10.28125 -44.46875 C 13.988281 -44.46875 16.367188 -43.976562 17.421875 -43 C 18.472656 -42.019531 19 -39.566406 19 -35.640625 Z M 19 -28.953125 "/></g></g></g><g fill="#d03030" fill-opacity="1"><g transform="translate(126.923666, 301.064502)"><g><path d="M 15.40625 -44.1875 L 15.40625 -38.3125 L 11.703125 -38.3125 L 11.703125 0 L 4.140625 0 L 4.140625 -38.3125 L 0.4375 -38.3125 L 0.4375 -44.1875 Z M 15.40625 -44.1875 "/></g></g></g><g fill="#d03030" fill-opacity="1"><g transform="translate(142.594475, 301.064502)"><g><path d="M 8.984375 -15.296875 L 11.53125 -15.296875 L 10.390625 -35.421875 L 10.171875 -35.421875 Z M 15.296875 -44.1875 L 19.75 0 L 12.40625 0 L 11.859375 -9.421875 L 8.703125 -9.421875 L 8.15625 0 L 0.875 0 L 5.21875 -44.1875 Z M 15.296875 -44.1875 "/></g></g></g><g fill="#d03030" fill-opacity="1"><g transform="translate(163.162426, 301.064502)"><g><path d="M 9.46875 -44.1875 L 9.46875 0 L 1.90625 0 L 1.90625 -44.1875 Z M 9.46875 -44.1875 "/></g></g></g><g fill="#d03030" fill-opacity="1"><g transform="translate(174.262583, 301.064502)"><g><path d="M 8.65625 -44.1875 L 12.796875 -22.15625 L 13.109375 -22.15625 L 13 -44.1875 L 19.53125 -44.1875 L 19.53125 0 L 12.84375 0 L 8.65625 -22.640625 L 8.328125 -22.640625 L 8.484375 0 L 1.90625 0 L 1.90625 -44.1875 Z M 8.65625 -44.1875 "/></g></g></g><g fill="#d03030" fill-opacity="1"><g transform="translate(195.537897, 301.064502)"><g><path d="M 8.984375 -15.296875 L 11.53125 -15.296875 L 10.390625 -35.421875 L 10.171875 -35.421875 Z M 15.296875 -44.1875 L 19.75 0 L 12.40625 0 L 11.859375 -9.421875 L 8.703125 -9.421875 L 8.15625 0 L 0.875 0 L 5.21875 -44.1875 Z M 15.296875 -44.1875 "/></g></g></g><g fill="#d03030" fill-opacity="1"><g transform="translate(216.105854, 301.064502)"><g><path d="M 9.46875 -5.828125 C 9.613281 -5.785156 9.847656 -5.765625 10.171875 -5.765625 C 10.796875 -5.765625 11.234375 -5.910156 11.484375 -6.203125 C 11.734375 -6.492188 11.859375 -7.003906 11.859375 -7.734375 L 11.859375 -18.671875 C 11.859375 -19.941406 11.28125 -20.578125 10.125 -20.578125 C 10.050781 -20.578125 9.941406 -20.566406 9.796875 -20.546875 C 9.648438 -20.523438 9.539062 -20.515625 9.46875 -20.515625 Z M 9.46875 -27 C 9.539062 -27 9.648438 -26.988281 9.796875 -26.96875 C 9.941406 -26.945312 10.050781 -26.9375 10.125 -26.9375 C 10.738281 -26.9375 11.179688 -27.082031 11.453125 -27.375 C 11.722656 -27.664062 11.859375 -28.171875 11.859375 -28.890625 L 11.859375 -36.578125 C 11.859375 -37.804688 11.332031 -38.421875 10.28125 -38.421875 L 9.46875 -38.421875 Z M 11.203125 -44.1875 C 14.367188 -44.1875 16.53125 -43.644531 17.6875 -42.5625 C 18.8125 -41.539062 19.375 -39.472656 19.375 -36.359375 L 19.375 -30.53125 C 19.375 -28.601562 19.109375 -27.140625 18.578125 -26.140625 C 18.054688 -25.148438 17.210938 -24.398438 16.046875 -23.890625 C 17.242188 -23.347656 18.097656 -22.585938 18.609375 -21.609375 C 19.117188 -20.628906 19.375 -19.101562 19.375 -17.03125 L 19.375 -8.921875 C 19.375 -5.078125 18.789062 -2.628906 17.625 -1.578125 C 16.46875 -0.523438 14.09375 0 10.5 0 L 1.90625 0 L 1.90625 -44.1875 Z M 11.203125 -44.1875 "/></g></g></g><g fill="#d03030" fill-opacity="1"><g transform="translate(237.054693, 301.064502)"><g><path d="M 9.46875 -44.1875 L 9.46875 0 L 1.90625 0 L 1.90625 -44.1875 Z M 9.46875 -44.1875 "/></g></g></g><g fill="#d03030" fill-opacity="1"><g transform="translate(248.154849, 301.064502)"><g><path d="M 9.46875 -44.1875 L 9.46875 -5.828125 L 13.984375 -5.828125 L 13.984375 0 L 1.90625 0 L 1.90625 -44.1875 Z M 9.46875 -44.1875 "/></g></g></g><g fill="#d03030" fill-opacity="1"><g transform="translate(262.628582, 301.064502)"><g><path d="M 9.46875 -44.1875 L 9.46875 0 L 1.90625 0 L 1.90625 -44.1875 Z M 9.46875 -44.1875 "/></g></g></g><g fill="#d03030" fill-opacity="1"><g transform="translate(273.728728, 301.064502)"><g><path d="M 15.40625 -44.1875 L 15.40625 -38.3125 L 11.703125 -38.3125 L 11.703125 0 L 4.140625 0 L 4.140625 -38.3125 L 0.4375 -38.3125 L 0.4375 -44.1875 Z M 15.40625 -44.1875 "/></g></g></g><g fill="#d03030" fill-opacity="1"><g transform="translate(289.39953, 301.064502)"><g><path d="M 7.296875 -44.1875 L 9.25 -27.15625 L 11.046875 -44.1875 L 18.171875 -44.1875 L 13.171875 -17.84375 L 13.171875 0 L 5.328125 0 L 5.328125 -17.84375 L -0.046875 -44.1875 Z M 7.296875 -44.1875 "/></g></g></g><g fill="#d03030" fill-opacity="1"><g transform="translate(307.236018, 301.064502)"><g/></g></g><g fill="#130c0e" fill-opacity="1"><g transform="translate(153.504706, 249.712524)"><g><path d="M 0.421875 -5.59375 L 2.765625 -5.59375 C 3.398438 -5.59375 3.90625 -5.425781 4.28125 -5.09375 C 4.664062 -4.757812 4.859375 -4.296875 4.859375 -3.703125 C 4.859375 -3.097656 4.671875 -2.628906 4.296875 -2.296875 C 3.921875 -1.972656 3.410156 -1.8125 2.765625 -1.8125 L 1.625 -1.8125 L 1.625 0 L 0.421875 0 Z M 2.59375 -2.828125 C 3.28125 -2.828125 3.625 -3.117188 3.625 -3.703125 C 3.625 -4.023438 3.53125 -4.25 3.34375 -4.375 C 3.164062 -4.507812 2.914062 -4.578125 2.59375 -4.578125 L 1.625 -4.578125 L 1.625 -2.828125 Z M 2.59375 -2.828125 "/></g></g></g><g fill="#130c0e" fill-opacity="1"><g transform="translate(162.504764, 249.712524)"><g><path d="M 0.421875 -5.59375 L 1.625 -5.59375 L 1.625 -1.015625 L 4.1875 -1.015625 L 4.1875 0 L 0.421875 0 Z M 0.421875 -5.59375 "/></g></g></g><g fill="#130c0e" fill-opacity="1"><g transform="translate(170.80082, 249.712524)"><g><path d="M 2.5 -5.59375 L 3.6875 -5.59375 L 5.921875 0 L 4.6875 0 L 4.203125 -1.21875 L 1.984375 -1.21875 L 1.5 0 L 0.25 0 Z M 3.875 -2.1875 L 3.09375 -4.3125 L 2.296875 -2.1875 Z M 3.875 -2.1875 "/></g></g></g><g fill="#130c0e" fill-opacity="1"><g transform="translate(180.976896, 249.712524)"><g><path d="M 1.75 -4.578125 L 0.125 -4.578125 L 0.125 -5.59375 L 4.59375 -5.59375 L 4.59375 -4.578125 L 2.96875 -4.578125 L 2.96875 0 L 1.75 0 Z M 1.75 -4.578125 "/></g></g></g><g fill="#130c0e" fill-opacity="1"><g transform="translate(189.696954, 249.712524)"><g><path d="M 0.421875 -5.59375 L 4.296875 -5.59375 L 4.296875 -4.5625 L 1.625 -4.5625 L 1.625 -3.265625 L 3.59375 -3.265625 L 3.59375 -2.328125 L 1.625 -2.328125 L 1.625 0 L 0.421875 0 Z M 0.421875 -5.59375 "/></g></g></g><g fill="#130c0e" fill-opacity="1"><g transform="translate(198.089008, 249.712524)"><g><path d="M 3.25 0.125 C 2.6875 0.125 2.175781 0.00390625 1.71875 -0.234375 C 1.269531 -0.484375 0.910156 -0.828125 0.640625 -1.265625 C 0.378906 -1.710938 0.25 -2.222656 0.25 -2.796875 C 0.25 -3.359375 0.378906 -3.859375 0.640625 -4.296875 C 0.910156 -4.742188 1.269531 -5.09375 1.71875 -5.34375 C 2.175781 -5.59375 2.6875 -5.71875 3.25 -5.71875 C 3.8125 -5.71875 4.316406 -5.59375 4.765625 -5.34375 C 5.210938 -5.09375 5.566406 -4.742188 5.828125 -4.296875 C 6.085938 -3.859375 6.21875 -3.359375 6.21875 -2.796875 C 6.21875 -2.222656 6.085938 -1.710938 5.828125 -1.265625 C 5.566406 -0.828125 5.210938 -0.484375 4.765625 -0.234375 C 4.316406 0.00390625 3.8125 0.125 3.25 0.125 Z M 3.25 -1 C 3.570312 -1 3.863281 -1.070312 4.125 -1.21875 C 4.382812 -1.363281 4.59375 -1.570312 4.75 -1.84375 C 4.90625 -2.113281 4.984375 -2.429688 4.984375 -2.796875 C 4.984375 -3.148438 4.90625 -3.460938 4.75 -3.734375 C 4.601562 -4.003906 4.394531 -4.210938 4.125 -4.359375 C 3.863281 -4.503906 3.570312 -4.578125 3.25 -4.578125 C 2.914062 -4.578125 2.613281 -4.503906 2.34375 -4.359375 C 2.082031 -4.210938 1.875 -4.003906 1.71875 -3.734375 C 1.570312 -3.460938 1.5 -3.148438 1.5 -2.796875 C 1.5 -2.429688 1.570312 -2.113281 1.71875 -1.84375 C 1.875 -1.570312 2.085938 -1.363281 2.359375 -1.21875 C 2.628906 -1.070312 2.925781 -1 3.25 -1 Z M 3.25 -1 "/></g></g></g><g fill="#130c0e" fill-opacity="1"><g transform="translate(208.569081, 249.712524)"><g><path d="M 0.421875 -5.59375 L 2.84375 -5.59375 C 3.476562 -5.59375 3.972656 -5.429688 4.328125 -5.109375 C 4.679688 -4.796875 4.859375 -4.34375 4.859375 -3.75 C 4.859375 -3.332031 4.757812 -2.976562 4.5625 -2.6875 C 4.375 -2.394531 4.101562 -2.179688 3.75 -2.046875 L 4.8125 0 L 3.5625 0 L 2.578125 -1.890625 L 1.625 -1.890625 L 1.625 0 L 0.421875 0 Z M 2.625 -2.90625 C 2.9375 -2.90625 3.179688 -2.972656 3.359375 -3.109375 C 3.535156 -3.242188 3.625 -3.457031 3.625 -3.75 C 3.625 -4.050781 3.535156 -4.265625 3.359375 -4.390625 C 3.179688 -4.515625 2.9375 -4.578125 2.625 -4.578125 L 1.625 -4.578125 L 1.625 -2.90625 Z M 2.625 -2.90625 "/></g></g></g><g fill="#130c0e" fill-opacity="1"><g transform="translate(217.689144, 249.712524)"><g><path d="M 0.421875 -5.59375 L 1.609375 -5.59375 L 3.34375 -1.84375 L 5.0625 -5.59375 L 6.25 -5.59375 L 6.25 0 L 5.09375 0 L 5.09375 -3.171875 L 3.609375 0 L 3.0625 0 L 1.578125 -3.171875 L 1.578125 0 L 0.421875 0 Z M 0.421875 -5.59375 "/></g></g></g></svg>